<svg xmlns="http://www.w3.org/2000/svg" viewBox="879.997 365.912 210.955 122.281">
    <defs>
        <style>
            .a {
                fill: #fff;
                stroke: rgba(0,0,0,0);
                stroke-width: 1px;
            }
        </style>
    </defs><path
        class="a"
        d="M33.691-52.588q-13.535,0-24.58,13.77A36.65,36.65,0,0,0,1.67-19.629C1-12.451,2.285-6.855,5.6-2.9s8.965,6.943,16.963,8.906A35.771,35.771,0,0,0,34.98,4.131C45.82.059,51.24-3.486,51.24-6.562V-7c0-2.2-1-3.281-2.988-3.281h-.879Q34.321-1.89,23.848-1.9L18.281-3.75q-13.1-7.427-5.771-24.463C17.4-39.58,23.027-45.41,29.326-45.732c6.328-.322,9.2,1.26,8.643,4.775.264,4.131,1.377,6.094,3.311,5.83s3.252-2.842,3.955-7.705Q45.234-50.962,33.691-52.588ZM51.3-30.908c-2.959.5-4.424,1.816-4.424,3.955l.5,4.922C46.055-9.463,44.883-1.758,43.916,1.113l1.963,1.963h1.494C51.328-1,53.291-4.746,53.291-8.232H59.18l2.461-.5L59.678,3.076c0,.967.645,1.816,1.963,2.49h1.992c2.725-3.721,4.512-8.5,5.42-14.3,2.959-.791,4.424-1.611,4.424-2.461v-2.461c-.146-.674-.967-1.348-2.461-1.963L72.48-26.953a6.327,6.327,0,0,0-2.959-3.955H67.559c-.908,0-1.9,3.281-2.959,9.844l-.967,5.449H54.756l1-7.91C55.752-28.447,54.258-30.908,51.3-30.908Zm41.25,1c-5.83,0-11.572,2.2-17.168,6.563l.527,4.043A133.583,133.583,0,0,0,74.385,1.846v.527c.146.674,1,1.348,2.52,2.021,3.721-.7,5.566-3.721,5.566-9.082Q95.83,3.354,98.086,3.369h1.025l1.523-1.523v-.5c-.322-2.93-4.512-6.621-12.627-11.074l-.674-.615c7.031-2.139,11.807-5.449,14.3-9.99v-.5C101.631-25.43,98.613-28.477,92.549-29.912Zm-4.043,7.061h3.545l1.494,1.025c0,1.26-3.018,2.959-9.082,5.039h-1v-5.039Zm31.377-11.572c-15.029,1.875-17.344,3.135-19.16,5.83,2.754,9.463,6.24-.674,10.254,2.607L110.039-6.68l.322,2.607-2.637,1.436h-.352c-3.867.674-5.8,1.9-5.8,3.633V2.051c.82,3.018,3.75,2.344,5.625,1.289l19.863-6.006c4.775-3.691-1.611-6.973-3.721-5.156l-6.3,2.109.322-21.416v-.5l1.465-.527c8.877-1.963,7.207-2.49,7.207-3.662v-1.055c0-.82-.674-1.348-2.051-1.553Zm30.732,5.654q-20.391,7.339-20.391,12.158-.044,4.263,11.514,7.822t4.189,7.734a110.057,110.057,0,0,0-9.814,6.006A4.075,4.075,0,0,0,138.457,8.5h.791c4.072,0,8.672-2.637,13.857-7.91s2.842-9.639-7.031-13.125-6.27-8.027,10.752-13.594c0-.527,1.23-.586.7-1.494.146-2.373-3.105-1.436-3.779-1.523Z"
        transform="translate(879 419)"/><path
        class="a"
        d="M34.395-52.881Q26-52.222,10.371-45.469c-6.035,3.311-9.023,5.859-8.936,7.617.088,1.729,1.494,1.9,4.189.469q22.017-9.712,28.1-9.7h.674Q33.076-43.828,19.16-31.9h-.322V-38.5c-.176-1.729-.967-2.578-2.373-2.578a4.3,4.3,0,0,0-2.725,1.289q-.835,0-2.021,38.73c0,1.553.908,2.432,2.7,2.578L15.439.879q3.384-1.8,3.4-21.152V-20.6q16.567,5.669,16.582,8.379v1.289l-.7.967C32.4-7.646,27.686-4.629,20.508-.937Q6.665,5.654,6.65,9.053a2.212,2.212,0,0,0,2.373,1.641q6.548-1.1,16.9-7.764Q41.836-4.014,41.836-11.25v-3.223q-5.493-6.24-11.162-8.086c-5.6-2.051-8.437-3.223-8.467-3.545l9.141-8.7q8.921-8.086,10.137-13.887C41.484-50.918,39.111-52.324,34.395-52.881ZM54.023-30.059c-7,0-10.928,1.26-11.719,3.809v3.193c.146.879,1.084,1.729,2.783,2.549Q41.177-15.1,41.191-4.57v1.26q3.076,7.646,12.275,7.646C60.908,2.314,64.629.41,64.629-1.406c0-2.959-1.113-4.453-3.369-4.453L54.023-4.57l-4.395.732L49.57-6.5q16.172-5.493,17.285-7v-2.549l-1.113-1.9c-2.959,0-7.588.85-13.945,2.549l1.494-5.449c11.719-3.369,17.344-6.211,16.9-8.584,0-1.7-.937-2.959-2.783-3.809Zm30.732-2.959q-3.735,0-11.25,23.32Q70.43,1.333,73.887-.82l1.172-.352c1.816,0,2.725-.762,2.725-2.314,2.08-1.934,6.328-3.369,12.8-4.277C92.314-2.578,94.014,0,95.625,0q2.417-.791,2.725-1.934V-3.105l-1.172-5.83c4.658-.674,7-1.582,7-2.725v-1.172c0-1.289-2.344-1.934-7-1.934l-2.314.381q-6.328-18.633-9.727-18.633Zm-.381,10.488c.439,0,1.611,2.725,3.486,8.145v.41L80.889-11.66h-.41Zm37.646-7.383c-5.83,0-11.572,2.2-17.168,6.563l.527,4.043a133.583,133.583,0,0,0-1.523,21.152v.527c.146.674,1,1.348,2.52,2.021,3.721-.7,5.566-3.721,5.566-9.082Q125.3,3.354,127.559,3.369h1.025l1.523-1.523v-.5c-.322-2.93-4.512-6.621-12.627-11.074l-.674-.615c7.031-2.139,11.807-5.449,14.3-9.99v-.5C131.1-25.43,128.086-28.477,122.021-29.912Zm-4.043,7.061h3.545l1.494,1.025c0,1.26-3.018,2.959-9.082,5.039h-1v-5.039Zm28.066-8.057q-15.117.615-13.975,4.16,1.187,3.516,5.186,3.516v5.654q0,11.646,2.373,17.93c0,2.256,1.348,3.457,4.014,3.6,1.758,0,4.688-1.2,8.818-3.6A24.337,24.337,0,0,0,162.451-14c0-5.479-1.055-9.229-3.193-11.279Q155.083-29.59,146.045-30.908Zm-3.193,7.178c7.061,0,11.572,1.875,13.594,5.625v1.025q0,8.438-12.8,14.355V-5.273L141.65-23.73Z"
        transform="translate(928 477)"/></svg>
